<?xml version="1.0" encoding="UTF-8"?>
<svg width="600" height="600" clip-rule="evenodd" fill-rule="evenodd" image-rendering="optimizeQuality" shape-rendering="geometricPrecision" text-rendering="geometricPrecision" version="1.1" xmlns="http://www.w3.org/2000/svg">
 <rect x="-5e-9" y=".4005" width="600.35" height="599.95" fill="#fff" stroke-width="1.0088"/>
 <g transform="translate(52.065 195.04)">
  <path d="m172.5 6.5h19c-0.329 34.24 4e-3 68.406 1 102.5-6.658 0.5-13.325 0.666-20 0.5v-103z" fill="#070707"/>
  <path d="m30.5 7.5v235h-19v-235h19z" opacity=".984"/>
  <path d="m48.5 8.5h19v234h-18c-0.9993-77.832-1.3326-155.83-1-234z" fill="#010101"/>
  <path d="m87.5 8.5h72v16h-52c-0.992 7.8159-1.326 15.816-1 24h35v16c-11.845-0.3283-23.512 0.0051-35 1-0.166 9.0062 0 18.006 0.5 27 18.09-0.9924 36.257-1.3257 54.5-1v17h-74v-100z" fill="#020202"/>
  <path d="m48.5 8.5c6.479-0.99071 13.146-1.324 20-1v236c-6.5221 0.323-12.855-0.01-19-1h18v-234h-19z" fill="#333" opacity=".694"/>
  <path d="m87.5 8.5v-1h73v18c-17.841 0.3301-35.508-0.0033-53-1h52v-16h-72z" fill="#3d3d3d" opacity=".047"/>
  <path d="m231.5 35.5c19.087-2.2146 32.254 5.4521 39.5 23 1.288 6.9369 1.788 13.937 1.5 21h-51c0.078 7.5756 3.745 12.409 11 14.5 11.034 2.9477 19.034-0.5523 24-10.5 5.617 1.9724 10.95 4.3057 16 7-5.165 11.091-13.831 17.591-26 19.5-31.001 1.999-45.834-12.501-44.5-43.5 3.62-16.449 13.453-26.782 29.5-31zm5 15c9.474 0.3034 15.14 5.1368 17 14.5-10.661 0.4998-21.328 0.6665-32 0.5 1.366-8.6992 6.366-13.699 15-15z" fill="#090909" opacity=".988"/>
  <path d="m372.5 35.5c29.446-0.2168 43.113 14.45 41 44h-51c-0.02 7.121 3.313 11.954 10 14.5 11.379 3.1657 19.713-0.3343 25-10.5 5.617 1.9724 10.95 4.3057 16 7-5.165 11.091-13.831 17.591-26 19.5-15.344 2.461-28.177-2.039-38.5-13.5-10.941-20.46-8.108-38.627 8.5-54.5 4.642-3.2601 9.642-5.4268 15-6.5zm5 15c9.859 0.1924 15.192 5.1924 16 15h-31c1.393-8.7268 6.393-13.727 15-15z" fill="#080809" opacity=".989"/>
  <path d="m442.5 46.5c-1.273 0.5768-1.273 1.2435 0 2 0.798-0.4569 1.131-1.1236 1-2 4.286-7.8132 10.953-11.48 20-11 13.472 0.6289 21.639 7.6289 24.5 21 0.5 17.664 0.667 35.33 0.5 53-6.59 0.311-13.09-0.022-19.5-1-0.333-16.333-0.667-32.667-1-49-1.711-5.3578-5.378-7.6912-11-7-6.914-0.0925-11.247 3.2409-13 10-1.42 15.618-1.92 31.284-1.5 47h-19v-73h19v10z" fill="#070707" opacity=".999"/>
  <path d="m318.5 106.5c-6.045 1.893-12.379 2.56-19 2-8.795-23.716-17.795-47.383-27-71 6.667-1.3333 13.333-1.3333 20 0 5.789 15.866 11.289 31.866 16.5 48 5.471-15.913 10.638-31.913 15.5-48 6.642-1.1642 13.308-1.3309 20-0.5-8.592 23.287-17.259 46.454-26 69.5z" fill="#0e0e0e" opacity=".999"/>
  <path d="m442.5 46.5h1c0.131 0.8764-0.202 1.5431-1 2-1.273-0.7565-1.273-1.4232 0-2z" fill="#5e5e5f" opacity=".565"/>
  <path d="m141.5 48.5c0.989 5.4753 1.322 11.142 1 17h-36c11.488-0.9949 23.155-1.3283 35-1v-16z" fill="#414141" opacity=".617"/>
  <path d="m87.5 7.5v1 100h74v-17c0.99 5.81 1.323 11.81 1 18h-76c-0.3317-34.171 0.0017-68.171 1-102z" fill="#6a6a6a" opacity=".082"/>
  <path d="m318.5 106.5v3c-6.522 0.323-12.855-0.01-19-1 6.621 0.56 12.955-0.107 19-2z" fill="#686868" opacity=".027"/>
 </g>
 <g transform="translate(52.465 193.84)">
  <path d="m258.5 235.5c-0.283-0.789-0.783-1.456-1.5-2-0.498 2.982-0.665 5.982-0.5 9-5.81 0.99-11.81 1.323-18 1v-104h19c-0.167 13.004 0 26.004 0.5 39 5.488-6.657 12.655-9.991 21.5-10 21.075 3.578 31.408 16.078 31 37.5 0.958 19.458-7.709 32.125-26 38-10.285 1.769-18.952-1.064-26-8.5zm9-50c12.027-2.251 19.527 2.416 22.5 14 2.378 10.334-0.122 19.168-7.5 26.5-13.253 5.29-21.753 1.123-25.5-12.5-2.556-11.878 0.944-21.211 10.5-28z" fill="#070707" opacity=".993"/>
 </g>
 <g transform="translate(52.065 195.04)">
  <path d="m106.5 225.5h46v18h-65v-101h18c-0.331 27.838 2e-3 55.505 1 83z" fill="#030303"/>
  <path d="m106.5 225.5c-0.998-27.495-1.331-55.162-1-83h-18v101c-0.9983-33.829-1.3317-67.829-1-102h20v84z" fill="#4d4d4d" opacity=".647"/>
  <path d="m337.5 195.5c1.82 1.961 3.82 2.294 6 1 9.918 1.354 19.251 4.521 28 9.5 7.463 7.35 8.963 15.85 4.5 25.5-8.187 10.672-19.02 15.172-32.5 13.5-11.16-1.575-20.16-6.741-27-15.5 4.834-3.252 9.834-6.252 15-9 5.943 7.261 13.609 10.094 23 8.5 4.708-1.771 6.042-4.937 4-9.5-9.478-3.268-19.145-6.101-29-8.5-12.013-6.373-15.513-15.873-10.5-28.5 9.563-12.521 22.063-16.688 37.5-12.5 8.71 2.355 15.71 7.189 21 14.5-4.63 2.986-9.297 5.986-14 9-7.558-9.399-16.725-11.399-27.5-6-0.891 2.998-0.391 5.664 1.5 8z" fill="#0a0a0a" opacity=".995"/>
  <path d="m225.5 190.5c-0.997 17.159-1.33 34.492-1 52-5.344 0.166-10.677-1e-3 -16-0.5-0.599-1.622-1.266-3.122-2-4.5 0.131-0.739-0.036-1.406-0.5-2-9.585 8.946-20.751 11.446-33.5 7.5-10.567-4.296-15.067-12.129-13.5-23.5 2.651-9.978 9.151-15.812 19.5-17.5 8.62-2.214 17.286-4.214 26-6 3.358-1.895 3.858-4.395 1.5-7.5-7.949-5.323-15.949-5.323-24 0-1.341 2.522-2.174 5.189-2.5 8h-19c1.47-14.641 9.47-23.475 24-26.5 9.158-1.093 18.158-0.426 27 2 7.447 4.061 12.114 10.228 14 18.5zm-19 17c2.384 13.972-3.616 21.639-18 23-7.677 0.159-10.844-3.508-9.5-11 0.785-1.786 1.951-3.286 3.5-4.5 8.212-2.213 16.212-4.713 24-7.5z" fill="#080808" opacity=".998"/>
  <path d="m225.5 190.5v53h-19v-6c0.734 1.378 1.401 2.878 2 4.5 5.323 0.499 10.656 0.666 16 0.5-0.33-17.508 3e-3 -34.841 1-52z" fill="#212121" opacity=".612"/>
  <path d="m337.5 195.5c2 0.333 4 0.667 6 1-2.18 1.294-4.18 0.961-6-1z" fill="#4a4a4b" opacity=".416"/>
  <path d="m258.5 235.5c-0.667 2.333-1.333 4.667-2 7-0.165-3.018 2e-3 -6.018 0.5-9 0.717 0.544 1.217 1.211 1.5 2z" fill="#9c9c9d" opacity=".235"/>
  <path d="m30.5 7.5c0.9993 78.498 1.3326 157.16 1 236-6.8543 0.324-13.521-9e-3 -20-1h19v-235z" fill="#4c4c4c" opacity=".009"/>
 </g>
 <g fill-opacity="0" stroke-width=".4005">
  <path d="m320.97 422.61c-4.4417-1.2593-7.3034-3.9316-9.768-9.1213-2.0098-4.232-2.7338-8.0308-2.513-13.185 0.30171-7.0434 2.6634-12.087 7.9536-16.985 2.5502-2.361 2.9903-2.6117 5.035-2.8672 5.3291-0.66583 10.322 0.49968 13.93 3.2517 2.0858 1.5909 4.4665 5.4358 5.6519 9.1279 1.3964 4.3495 1.7595 10.907 0.81289 14.681-0.9321 3.7161-3.4753 8.6455-5.803 11.248-1.7846 1.995-2.3231 2.3322-4.9889 3.1236-3.7602 1.1163-7.9048 1.4081-10.311 0.72597z"/>
  <path d="m237.66 425.12c-3.373-0.55914-5.2211-1.953-6.1894-4.668-1.1091-3.1099-0.47334-6.226 1.7554-8.6038 1.3472-1.4373 1.9841-1.7167 7.6768-3.3682 3.4142-0.99048 8.7554-2.6665 11.869-3.7245l5.6615-1.9236 0.24588 1.7939c0.59619 4.3497-0.18834 9.3137-1.946 12.313-1.3153 2.2444-4.2687 4.8738-6.7492 6.0088-3.674 1.6811-9.3029 2.6734-12.324 2.1725z"/>
  <path d="m273.97 259.48c1.8008-7.5518 5.7623-11.657 12.887-13.356 1.6213-0.38646 2.7012-0.39813 4.696-0.0507 6.6373 1.1558 10.678 4.5484 12.865 10.801l0.92528 2.6459-0.99476 0.26861c-0.54712 0.14773-7.6684 0.39969-15.825 0.55991l-14.83 0.29131z"/>
 </g>
 <g fill="#fff" stroke-width=".4005">
  <path d="m414.97 259.42c1.8458-7.6964 6.6867-12.367 14.036-13.542 4.143-0.66249 10.495 1.8858 13.04 5.2317 1.5563 2.0455 3.1123 6.1714 3.1123 8.2524v1.1593h-30.453z"/>
  <path d="m273.97 259.48c1.8008-7.5518 5.7623-11.657 12.887-13.356 1.6213-0.38646 2.7012-0.39813 4.696-0.0507 6.6373 1.1558 10.678 4.5484 12.865 10.801l0.92528 2.6459-0.99476 0.26861c-0.54712 0.14773-7.6684 0.39969-15.825 0.55991l-14.83 0.29131z"/>
  <path d="m237.66 425.12c-3.373-0.55914-5.2211-1.953-6.1894-4.668-1.1091-3.1099-0.47334-6.226 1.7554-8.6038 1.3472-1.4373 1.9841-1.7167 7.6768-3.3682 3.4142-0.99048 8.7554-2.6665 11.869-3.7245l5.6615-1.9236 0.24588 1.7939c0.59619 4.3497-0.18834 9.3137-1.946 12.313-1.3153 2.2444-4.2687 4.8738-6.7492 6.0088-3.674 1.6811-9.3029 2.6734-12.324 2.1725z"/>
 </g>
</svg>
